<mxfile host="Electron" modified="2023-11-12T08:40:28.290Z" agent="Mozilla/5.0 (Windows NT 10.0; Win64; x64) AppleWebKit/537.36 (KHTML, like Gecko) draw.io/22.0.0 Chrome/114.0.5735.289 Electron/25.8.3 Safari/537.36" etag="o3zpm5XWYQx6GE__GrS9" version="22.0.0" type="device">
  <diagram name="Page-1" id="2PBWScnECyC5sXRFXS1E">
    <mxGraphModel dx="1036" dy="605" grid="1" gridSize="10" guides="1" tooltips="1" connect="1" arrows="1" fold="1" page="1" pageScale="1" pageWidth="827" pageHeight="1169" math="0" shadow="0">
      <root>
        <mxCell id="0" />
        <mxCell id="1" parent="0" />
        <mxCell id="oF09a_kq45fxe3MyvWU--12" style="edgeStyle=orthogonalEdgeStyle;rounded=0;sketch=1;hachureGap=4;jiggle=2;curveFitting=1;orthogonalLoop=1;jettySize=auto;html=1;exitX=0.5;exitY=1;exitDx=0;exitDy=0;entryX=0.5;entryY=0;entryDx=0;entryDy=0;fontFamily=Architects Daughter;fontSource=https%3A%2F%2Ffonts.googleapis.com%2Fcss%3Ffamily%3DArchitects%2BDaughter;fontSize=16;" edge="1" parent="1" source="oF09a_kq45fxe3MyvWU--1" target="oF09a_kq45fxe3MyvWU--2">
          <mxGeometry relative="1" as="geometry" />
        </mxCell>
        <mxCell id="oF09a_kq45fxe3MyvWU--1" value="&lt;b&gt;Producer&lt;/b&gt;" style="rounded=1;whiteSpace=wrap;html=1;sketch=1;hachureGap=4;jiggle=2;curveFitting=1;fontFamily=Architects Daughter;fontSource=https%3A%2F%2Ffonts.googleapis.com%2Fcss%3Ffamily%3DArchitects%2BDaughter;fontSize=20;" vertex="1" parent="1">
          <mxGeometry x="400" y="140" width="120" height="60" as="geometry" />
        </mxCell>
        <mxCell id="oF09a_kq45fxe3MyvWU--8" style="edgeStyle=orthogonalEdgeStyle;rounded=0;sketch=1;hachureGap=4;jiggle=2;curveFitting=1;orthogonalLoop=1;jettySize=auto;html=1;exitX=1;exitY=0.5;exitDx=0;exitDy=0;fontFamily=Architects Daughter;fontSource=https%3A%2F%2Ffonts.googleapis.com%2Fcss%3Ffamily%3DArchitects%2BDaughter;fontSize=16;" edge="1" parent="1" source="oF09a_kq45fxe3MyvWU--2" target="oF09a_kq45fxe3MyvWU--9">
          <mxGeometry relative="1" as="geometry">
            <mxPoint x="590" y="300" as="targetPoint" />
          </mxGeometry>
        </mxCell>
        <mxCell id="oF09a_kq45fxe3MyvWU--14" style="edgeStyle=orthogonalEdgeStyle;rounded=0;sketch=1;hachureGap=4;jiggle=2;curveFitting=1;orthogonalLoop=1;jettySize=auto;html=1;exitX=0.5;exitY=1;exitDx=0;exitDy=0;entryX=0.5;entryY=0;entryDx=0;entryDy=0;fontFamily=Architects Daughter;fontSource=https%3A%2F%2Ffonts.googleapis.com%2Fcss%3Ffamily%3DArchitects%2BDaughter;fontSize=16;" edge="1" parent="1" source="oF09a_kq45fxe3MyvWU--2" target="oF09a_kq45fxe3MyvWU--13">
          <mxGeometry relative="1" as="geometry" />
        </mxCell>
        <mxCell id="oF09a_kq45fxe3MyvWU--2" value="&lt;b&gt;Broker&lt;br&gt;(leader)&lt;br&gt;&lt;/b&gt;" style="rounded=1;whiteSpace=wrap;html=1;sketch=1;hachureGap=4;jiggle=2;curveFitting=1;fontFamily=Architects Daughter;fontSource=https%3A%2F%2Ffonts.googleapis.com%2Fcss%3Ffamily%3DArchitects%2BDaughter;fontSize=20;" vertex="1" parent="1">
          <mxGeometry x="400" y="270" width="120" height="60" as="geometry" />
        </mxCell>
        <mxCell id="oF09a_kq45fxe3MyvWU--9" value="log" style="shape=cylinder3;whiteSpace=wrap;html=1;boundedLbl=1;backgroundOutline=1;size=15;sketch=1;hachureGap=4;jiggle=2;curveFitting=1;fontFamily=Architects Daughter;fontSource=https%3A%2F%2Ffonts.googleapis.com%2Fcss%3Ffamily%3DArchitects%2BDaughter;fontSize=20;fontStyle=1" vertex="1" parent="1">
          <mxGeometry x="580" y="260" width="50" height="80" as="geometry" />
        </mxCell>
        <mxCell id="oF09a_kq45fxe3MyvWU--10" value="&lt;font style=&quot;font-size: 14px;&quot;&gt;How does client know if message was written to log if no ack is received?&amp;nbsp;&lt;/font&gt;" style="rounded=1;whiteSpace=wrap;html=1;hachureGap=4;fontFamily=Architects Daughter;fontSource=https%3A%2F%2Ffonts.googleapis.com%2Fcss%3Ffamily%3DArchitects%2BDaughter;fontSize=20;fontStyle=1;fillColor=#f8cecc;strokeColor=#b85450;rotation=15;" vertex="1" parent="1">
          <mxGeometry x="460" y="100" width="210" height="80" as="geometry" />
        </mxCell>
        <mxCell id="oF09a_kq45fxe3MyvWU--11" value="&lt;font style=&quot;font-size: 14px;&quot;&gt;&lt;b&gt;Broker crash may happen before or after write to log&lt;/b&gt;&lt;/font&gt;" style="rounded=1;whiteSpace=wrap;html=1;hachureGap=4;fontFamily=Architects Daughter;fontSource=https%3A%2F%2Ffonts.googleapis.com%2Fcss%3Ffamily%3DArchitects%2BDaughter;fontSize=20;fillColor=#f8cecc;strokeColor=#b85450;rotation=15;" vertex="1" parent="1">
          <mxGeometry x="480" y="330" width="170" height="80" as="geometry" />
        </mxCell>
        <mxCell id="oF09a_kq45fxe3MyvWU--13" value="&lt;b&gt;Consumer&lt;/b&gt;" style="rounded=1;whiteSpace=wrap;html=1;sketch=1;hachureGap=4;jiggle=2;curveFitting=1;fontFamily=Architects Daughter;fontSource=https%3A%2F%2Ffonts.googleapis.com%2Fcss%3Ffamily%3DArchitects%2BDaughter;fontSize=20;" vertex="1" parent="1">
          <mxGeometry x="400" y="420" width="120" height="60" as="geometry" />
        </mxCell>
        <mxCell id="oF09a_kq45fxe3MyvWU--15" value="&lt;font style=&quot;font-size: 14px;&quot;&gt;&lt;b&gt;New consumers should be able to pick up from where failed consumers left&lt;/b&gt;&lt;/font&gt;" style="rounded=1;whiteSpace=wrap;html=1;hachureGap=4;fontFamily=Architects Daughter;fontSource=https%3A%2F%2Ffonts.googleapis.com%2Fcss%3Ffamily%3DArchitects%2BDaughter;fontSize=20;fillColor=#f8cecc;strokeColor=#b85450;rotation=15;" vertex="1" parent="1">
          <mxGeometry x="508.71" y="449.83" width="170" height="90" as="geometry" />
        </mxCell>
        <mxCell id="oF09a_kq45fxe3MyvWU--16" value="&lt;b&gt;Broker&lt;br&gt;(follower)&lt;br&gt;&lt;/b&gt;" style="rounded=1;whiteSpace=wrap;html=1;sketch=1;hachureGap=4;jiggle=2;curveFitting=1;fontFamily=Architects Daughter;fontSource=https%3A%2F%2Ffonts.googleapis.com%2Fcss%3Ffamily%3DArchitects%2BDaughter;fontSize=20;" vertex="1" parent="1">
          <mxGeometry x="330" y="320" width="120" height="60" as="geometry" />
        </mxCell>
        <mxCell id="oF09a_kq45fxe3MyvWU--17" value="&lt;font style=&quot;font-size: 14px;&quot;&gt;&lt;b&gt;Number of ISR must be &#39;minimum - ISR&#39; for the cluster to be consistent&lt;/b&gt;&lt;/font&gt;" style="rounded=1;whiteSpace=wrap;html=1;hachureGap=4;fontFamily=Architects Daughter;fontSource=https%3A%2F%2Ffonts.googleapis.com%2Fcss%3Ffamily%3DArchitects%2BDaughter;fontSize=20;fillColor=#f8cecc;strokeColor=#b85450;rotation=15;" vertex="1" parent="1">
          <mxGeometry x="220" y="220" width="170" height="90" as="geometry" />
        </mxCell>
      </root>
    </mxGraphModel>
  </diagram>
</mxfile>
